{
  "accessors": [
    {
      "bufferView": 2,
      "componentType": 5126,
      "count": 2048,
      "max": [
        2.5,
        7.5555782318115234,
        2.5
      ],
      "min": [
        -2.5,
        2.4513604640960693,
        -2.5
      ],
      "type": "VEC3"
    },
    {
      "bufferView": 2,
      "byteOffset": 24576,
      "componentType": 5126,
      "count": 2048,
      "max": [
        1,
        1,
        1
      ],
      "min": [
        -1,
        -1,
        -1
      ],
      "type": "VEC3"
    },
    {
      "bufferView": 1,
      "componentType": 5126,
      "count": 2048,
      "max": [
        0.86007022857666016,
        0.99800807237625122
      ],
      "min": [
        0.0017167071346193552,
        0.0019920321647077799
      ],
      "type": "VEC2"
    },
    {
      "bufferView": 0,
      "componentType": 5125,
      "count": 8751,
      "max": [
        2047
      ],
      "min": [
        0
      ],
      "type": "SCALAR"
    },
    {
      "bufferView": 2,
      "byteOffset": 49152,
      "componentType": 5126,
      "count": 210,
      "max": [
        2.2866079807281494,
        5.5961675643920898,
        2.2866079807281494
      ],
      "min": [
        -2.2866079807281494,
        4.3968172073364258,
        -2.2866079807281494
      ],
      "type": "VEC3"
    },
    {
      "bufferView": 2,
      "byteOffset": 51672,
      "componentType": 5126,
      "count": 210,
      "max": [
        1,
        0.3826841413974762,
        1
      ],
      "min": [
        -1,
        -0.38268411159515381,
        -1
      ],
      "type": "VEC3"
    },
    {
      "bufferView": 1,
      "byteOffset": 16384,
      "componentType": 5126,
      "count": 210,
      "max": [
        0.86007022857666016,
        0.81391119956970215
      ],
      "min": [
        0.5375327467918396,
        0.64784437417984009
      ],
      "type": "VEC2"
    },
    {
      "bufferView": 0,
      "byteOffset": 35004,
      "componentType": 5125,
      "count": 726,
      "max": [
        209
      ],
      "min": [
        0
      ],
      "type": "SCALAR"
    },
    {
      "bufferView": 2,
      "byteOffset": 54192,
      "componentType": 5126,
      "count": 60,
      "max": [
        1.6387302875518799,
        5.5961675643920898,
        -2.25
      ],
      "min": [
        -1.630058765411377,
        4.3968172073364258,
        -2.2932062149047852
      ],
      "type": "VEC3"
    },
    {
      "bufferView": 2,
      "byteOffset": 54912,
      "componentType": 5126,
      "count": 60,
      "max": [
        0.38268342614173889,
        0.3826841413974762,
        -0.58157050609588623
      ],
      "min": [
        -0.81348782777786255,
        -0.38268300890922546,
        -1
      ],
      "type": "VEC3"
    },
    {
      "bufferView": 1,
      "byteOffset": 18064,
      "componentType": 5126,
      "count": 60,
      "max": [
        0.75174778699874878,
        0.84969109296798706
      ],
      "min": [
        0.40551254153251648,
        0.22039133310317993
      ],
      "type": "VEC2"
    },
    {
      "bufferView": 1,
      "byteOffset": 18544,
      "componentType": 5126,
      "count": 60,
      "max": [
        0.75174778699874878,
        0.84969109296798706
      ],
      "min": [
        0.40551254153251648,
        0.22039133310317993
      ],
      "type": "VEC2"
    },
    {
      "bufferView": 0,
      "byteOffset": 37908,
      "componentType": 5125,
      "count": 150,
      "max": [
        59
      ],
      "min": [
        0
      ],
      "type": "SCALAR"
    },
    {
      "bufferView": 2,
      "byteOffset": 55632,
      "componentType": 5126,
      "count": 854,
      "max": [
        7.5,
        3.75,
        7.5
      ],
      "min": [
        -7.5,
        -2.5,
        -7.5000004768371582
      ],
      "type": "VEC3"
    },
    {
      "bufferView": 2,
      "byteOffset": 65880,
      "componentType": 5126,
      "count": 854,
      "max": [
        1,
        1,
        1
      ],
      "min": [
        -1,
        -1,
        -1
      ],
      "type": "VEC3"
    },
    {
      "bufferView": 1,
      "byteOffset": 19024,
      "componentType": 5126,
      "count": 854,
      "max": [
        0.96680665016174316,
        0.99800801277160645
      ],
      "min": [
        0.0019297539256513119,
        0.0019920319318771362
      ],
      "type": "VEC2"
    },
    {
      "bufferView": 0,
      "byteOffset": 38508,
      "componentType": 5125,
      "count": 3129,
      "max": [
        853
      ],
      "min": [
        0
      ],
      "type": "SCALAR"
    },
    {
      "bufferView": 2,
      "byteOffset": 76128,
      "componentType": 5126,
      "count": 12,
      "max": [
        1.875,
        1.25,
        -7
      ],
      "min": [
        -1.875,
        -2.5,
        -7
      ],
      "type": "VEC3"
    },
    {
      "bufferView": 2,
      "byteOffset": 76272,
      "componentType": 5126,
      "count": 12,
      "max": [
        0,
        0,
        -1
      ],
      "min": [
        0,
        0,
        -1
      ],
      "type": "VEC3"
    },
    {
      "bufferView": 1,
      "byteOffset": 25856,
      "componentType": 5126,
      "count": 12,
      "max": [
        0.2582220733165741,
        0.53100126981735229
      ],
      "min": [
        0.15319357812404633,
        0.42597275972366333
      ],
      "type": "VEC2"
    },
    {
      "bufferView": 0,
      "byteOffset": 51024,
      "componentType": 5125,
      "count": 36,
      "max": [
        11
      ],
      "min": [
        0
      ],
      "type": "SCALAR"
    },
    {
      "bufferView": 2,
      "byteOffset": 76416,
      "componentType": 5126,
      "count": 1770,
      "max": [
        13.258193969726562,
        0.58243376016616821,
        13.75698184967041
      ],
      "min": [
        -13.258193969726562,
        -0.86493206024169922,
        -13.748235702514648
      ],
      "type": "VEC3"
    },
    {
      "bufferView": 2,
      "byteOffset": 97656,
      "componentType": 5126,
      "count": 1770,
      "max": [
        0.9999503493309021,
        1,
        0.80213755369186401
      ],
      "min": [
        -0.99995040893554688,
        -1,
        -0.80213057994842529
      ],
      "type": "VEC3"
    },
    {
      "bufferView": 1,
      "byteOffset": 25952,
      "componentType": 5126,
      "count": 1770,
      "max": [
        1,
        0.78838568925857544
      ],
      "min": [
        0,
        0
      ],
      "type": "VEC2"
    },
    {
      "bufferView": 0,
      "byteOffset": 51168,
      "componentType": 5125,
      "count": 8640,
      "max": [
        1769
      ],
      "min": [
        0
      ],
      "type": "SCALAR"
    },
    {
      "bufferView": 2,
      "byteOffset": 118896,
      "componentType": 5126,
      "count": 354,
      "max": [
        1.3207683563232422,
        15.31336784362793,
        0.18170151114463806
      ],
      "min": [
        -1.3207683563232422,
        9.6460647583007812,
        -0.16629707813262939
      ],
      "type": "VEC3"
    },
    {
      "bufferView": 2,
      "byteOffset": 123144,
      "componentType": 5126,
      "count": 354,
      "max": [
        0.99996417760848999,
        1,
        1
      ],
      "min": [
        -0.99996417760848999,
        -1,
        -1
      ],
      "type": "VEC3"
    },
    {
      "bufferView": 1,
      "byteOffset": 40112,
      "componentType": 5126,
      "count": 354,
      "max": [
        0.875,
        1
      ],
      "min": [
        0.125,
        -7.4505805969238281e-08
      ],
      "type": "VEC2"
    },
    {
      "bufferView": 0,
      "byteOffset": 85728,
      "componentType": 5125,
      "count": 1536,
      "max": [
        353
      ],
      "min": [
        0
      ],
      "type": "SCALAR"
    },
    {
      "bufferView": 2,
      "byteOffset": 127392,
      "componentType": 5126,
      "count": 1734,
      "max": [
        1,
        1.1574063301086426,
        0.99814629554748535
      ],
      "min": [
        -11.805765151977539,
        -1.02781081199646,
        -2.4556777477264404
      ],
      "type": "VEC3"
    },
    {
      "bufferView": 2,
      "byteOffset": 148200,
      "componentType": 5126,
      "count": 1734,
      "max": [
        0.99994921684265137,
        0.99980539083480835,
        0.99455612897872925
      ],
      "min": [
        -0.99994921684265137,
        -0.9898950457572937,
        -0.99546325206756592
      ],
      "type": "VEC3"
    },
    {
      "bufferView": 1,
      "byteOffset": 42944,
      "componentType": 5126,
      "count": 1734,
      "max": [
        1,
        0.93985921144485474
      ],
      "min": [
        0,
        0
      ],
      "type": "VEC2"
    },
    {
      "bufferView": 0,
      "byteOffset": 91872,
      "componentType": 5125,
      "count": 6960,
      "max": [
        1733
      ],
      "min": [
        0
      ],
      "type": "SCALAR"
    },
    {
      "bufferView": 2,
      "byteOffset": 169008,
      "componentType": 5126,
      "count": 90,
      "max": [
        0.87917900085449219,
        0.80804121494293213,
        0.47731280326843262
      ],
      "min": [
        -11.684944152832031,
        0.37889036536216736,
        -1.4688231945037842
      ],
      "type": "VEC3"
    },
    {
      "bufferView": 2,
      "byteOffset": 170088,
      "componentType": 5126,
      "count": 90,
      "max": [
        0.99922919273376465,
        0.93112033605575562,
        0.43583235144615173
      ],
      "min": [
        -0.99922913312911987,
        -0.93160992860794067,
        -0.43739417195320129
      ],
      "type": "VEC3"
    },
    {
      "bufferView": 1,
      "byteOffset": 56816,
      "componentType": 5126,
      "count": 90,
      "max": [
        0.99819386005401611,
        0.77322810888290405
      ],
      "min": [
        0.035944700241088867,
        0
      ],
      "type": "VEC2"
    },
    {
      "bufferView": 0,
      "byteOffset": 119712,
      "componentType": 5125,
      "count": 240,
      "max": [
        89
      ],
      "min": [
        0
      ],
      "type": "SCALAR"
    }
  ],
  "asset": {
    "extras": {
      "author": "Veronica Fulbright (https://sketchfab.com/vfulbrig)",
      "license": "CC-BY-4.0 (http://creativecommons.org/licenses/by/4.0/)",
      "source": "https://sketchfab.com/3d-models/wk6a-castle-fbx-fulbright-veronica-00ca8340092749a488f666b28569e124",
      "title": "Wk6a Castle FBX Fulbright Veronica"
    },
    "generator": "Sketchfab-7.82.0",
    "version": "2.0"
  },
  "bufferViews": [
    {
      "buffer": 0,
      "byteLength": 120672,
      "byteOffset": 0,
      "name": "floatBufferViews",
      "target": 34963
    },
    {
      "buffer": 0,
      "byteLength": 57536,
      "byteOffset": 120672,
      "byteStride": 8,
      "name": "floatBufferViews",
      "target": 34962
    },
    {
      "buffer": 0,
      "byteLength": 171168,
      "byteOffset": 178208,
      "byteStride": 12,
      "name": "floatBufferViews",
      "target": 34962
    }
  ],
  "buffers": [
    {
      "byteLength": 349376,
      "uri": "scene.bin"
    }
  ],
  "extensionsRequired": [
    "KHR_materials_pbrSpecularGlossiness"
  ],
  "extensionsUsed": [
    "KHR_materials_pbrSpecularGlossiness"
  ],
  "images": [
    {
      "uri": "textures/Sand1_diffuse.jpeg"
    },
    {
      "uri": "textures/Sand1_specularGlossiness.png"
    },
    {
      "uri": "textures/Eyes_diffuse.png"
    }
  ],
  "materials": [
    {
      "doubleSided": true,
      "emissiveFactor": [
        0,
        0,
        0
      ],
      "extensions": {
        "KHR_materials_pbrSpecularGlossiness": {
          "diffuseFactor": [
            1,
            1,
            1,
            1
          ],
          "diffuseTexture": {
            "index": 0,
            "texCoord": 0
          },
          "glossinessFactor": 1,
          "specularFactor": [
            0,
            0,
            0
          ],
          "specularGlossinessTexture": {
            "index": 1,
            "texCoord": 0
          }
        }
      },
      "name": "Sand1"
    },
    {
      "doubleSided": true,
      "emissiveFactor": [
        0,
        0,
        0
      ],
      "extensions": {
        "KHR_materials_pbrSpecularGlossiness": {
          "diffuseFactor": [
            0.17244664634146342,
            0.17244664634146342,
            0.17244664634146342,
            1
          ],
          "diffuseTexture": {
            "index": 0,
            "texCoord": 0
          },
          "glossinessFactor": 0.079251618375051722,
          "specularFactor": [
            0,
            0,
            0
          ]
        }
      },
      "name": "Dark_Sand"
    },
    {
      "doubleSided": true,
      "emissiveFactor": [
        0,
        0,
        0
      ],
      "extensions": {
        "KHR_materials_pbrSpecularGlossiness": {
          "diffuseFactor": [
            1,
            1,
            1,
            1
          ],
          "diffuseTexture": {
            "index": 2,
            "texCoord": 0
          },
          "glossinessFactor": 0.40000000000000002,
          "specularFactor": [
            0,
            0,
            0
          ]
        }
      },
      "name": "Eyes"
    },
    {
      "doubleSided": true,
      "emissiveFactor": [
        0,
        0,
        0
      ],
      "extensions": {
        "KHR_materials_pbrSpecularGlossiness": {
          "diffuseFactor": [
            0.086599999999999996,
            0.011800000000000001,
            0.021199999999999976,
            1
          ],
          "glossinessFactor": 0.58708079268292679,
          "specularFactor": [
            0,
            0,
            0
          ]
        }
      },
      "name": "Shovel1"
    }
  ],
  "meshes": [
    {
      "name": "Roof_Sand1_0",
      "primitives": [
        {
          "attributes": {
            "NORMAL": 1,
            "POSITION": 0,
            "TEXCOORD_0": 2
          },
          "indices": 3,
          "material": 0,
          "mode": 4
        }
      ]
    },
    {
      "name": "Roof_Dark_Sand_0",
      "primitives": [
        {
          "attributes": {
            "NORMAL": 5,
            "POSITION": 4,
            "TEXCOORD_0": 6
          },
          "indices": 7,
          "material": 1,
          "mode": 4
        }
      ]
    },
    {
      "name": "Roof_Eyes_0",
      "primitives": [
        {
          "attributes": {
            "NORMAL": 9,
            "POSITION": 8,
            "TEXCOORD_0": 10,
            "TEXCOORD_1": 11
          },
          "indices": 12,
          "material": 2,
          "mode": 4
        }
      ]
    },
    {
      "name": "Base_Sand1_0",
      "primitives": [
        {
          "attributes": {
            "NORMAL": 14,
            "POSITION": 13,
            "TEXCOORD_0": 15
          },
          "indices": 16,
          "material": 0,
          "mode": 4
        }
      ]
    },
    {
      "name": "Base_Dark_Sand_0",
      "primitives": [
        {
          "attributes": {
            "NORMAL": 18,
            "POSITION": 17,
            "TEXCOORD_0": 19
          },
          "indices": 20,
          "material": 1,
          "mode": 4
        }
      ]
    },
    {
      "name": "Sand_Sand1_0",
      "primitives": [
        {
          "attributes": {
            "NORMAL": 22,
            "POSITION": 21,
            "TEXCOORD_0": 23
          },
          "indices": 24,
          "material": 0,
          "mode": 4
        }
      ]
    },
    {
      "name": "Shovel_Shovel1_0",
      "primitives": [
        {
          "attributes": {
            "NORMAL": 26,
            "POSITION": 25,
            "TEXCOORD_0": 27
          },
          "indices": 28,
          "material": 3,
          "mode": 4
        }
      ]
    },
    {
      "name": "Pillar_Arms_Sand1_0",
      "primitives": [
        {
          "attributes": {
            "NORMAL": 30,
            "POSITION": 29,
            "TEXCOORD_0": 31
          },
          "indices": 32,
          "material": 0,
          "mode": 4
        }
      ]
    },
    {
      "name": "Pillar_Arms_Dark_Sand_0",
      "primitives": [
        {
          "attributes": {
            "NORMAL": 34,
            "POSITION": 33,
            "TEXCOORD_0": 35
          },
          "indices": 36,
          "material": 1,
          "mode": 4
        }
      ]
    }
  ],
  "nodes": [
    {
      "children": [
        1
      ],
      "name": "RootNode (gltf orientation matrix)",
      "rotation": [
        -0.70710678118654746,
        -0,
        -0,
        0.70710678118654757
      ]
    },
    {
      "children": [
        2
      ],
      "name": "RootNode (model correction matrix)"
    },
    {
      "children": [
        3
      ],
      "matrix": [
        1,
        0,
        0,
        0,
        0,
        0,
        1,
        0,
        0,
        -1,
        0,
        0,
        0,
        0,
        0,
        1
      ],
      "name": "66ccfc1b2ed34ca896133766d65611ff.fbx"
    },
    {
      "children": [
        4,
        8,
        11,
        13,
        15,
        17
      ],
      "name": "RootNode"
    },
    {
      "children": [
        5,
        6,
        7
      ],
      "matrix": [
        1,
        0,
        0,
        0,
        0,
        1,
        0,
        0,
        0,
        0,
        1,
        0,
        0,
        2.5486395359039307,
        0,
        1
      ],
      "name": "Roof"
    },
    {
      "mesh": 0,
      "name": "Roof_Sand1_0"
    },
    {
      "mesh": 1,
      "name": "Roof_Dark_Sand_0"
    },
    {
      "mesh": 2,
      "name": "Roof_Eyes_0"
    },
    {
      "children": [
        9,
        10
      ],
      "matrix": [
        1,
        0,
        0,
        0,
        0,
        1,
        0,
        0,
        0,
        0,
        1,
        0,
        0,
        2.4544467926025391,
        0,
        1
      ],
      "name": "Base"
    },
    {
      "mesh": 3,
      "name": "Base_Sand1_0"
    },
    {
      "mesh": 4,
      "name": "Base_Dark_Sand_0"
    },
    {
      "children": [
        12
      ],
      "matrix": [
        1,
        0,
        0,
        0,
        0,
        0.51138722896575928,
        0,
        0,
        0,
        0,
        1,
        0,
        0,
        -0.10191337019205093,
        0,
        1
      ],
      "name": "Sand"
    },
    {
      "mesh": 5,
      "name": "Sand_Sand1_0"
    },
    {
      "children": [
        14
      ],
      "matrix": [
        0,
        1,
        -3.3306690738754696e-16,
        0,
        -1.1102230246251565e-16,
        2.2204460492503131e-16,
        1,
        0,
        1,
        -1.1102230246251565e-16,
        0,
        0,
        0,
        -1000.0999755859375,
        0,
        1
      ],
      "name": "bottom"
    },
    {
      "name": ""
    },
    {
      "children": [
        16
      ],
      "matrix": [
        0.8584148457052807,
        0.51295609234395412,
        0,
        0,
        -0.51295609234395412,
        0.8584148457052807,
        0,
        0,
        0,
        0,
        1,
        0,
        5.1688385009765625,
        1.3298202753067017,
        0,
        1
      ],
      "name": "Shovel"
    },
    {
      "mesh": 6,
      "name": "Shovel_Shovel1_0"
    },
    {
      "children": [
        18,
        19
      ],
      "matrix": [
        1.8416088819503784,
        0,
        0,
        0,
        0,
        2.7035702248025872,
        -6.3027985561088329,
        0,
        0,
        1.6924750591945907,
        0.7259830907691921,
        0,
        9.9499959945678711,
        5.4012560844421387,
        0,
        1
      ],
      "name": "Pillar_Arms"
    },
    {
      "mesh": 7,
      "name": "Pillar_Arms_Sand1_0"
    },
    {
      "mesh": 8,
      "name": "Pillar_Arms_Dark_Sand_0"
    }
  ],
  "samplers": [
    {
      "magFilter": 9729,
      "minFilter": 9987,
      "wrapS": 10497,
      "wrapT": 10497
    }
  ],
  "scene": 0,
  "scenes": [
    {
      "name": "OSG_Scene",
      "nodes": [
        0
      ]
    }
  ],
  "textures": [
    {
      "sampler": 0,
      "source": 0
    },
    {
      "sampler": 0,
      "source": 1
    },
    {
      "sampler": 0,
      "source": 2
    }
  ]
}

